<svg width="30" height="30" viewBox="0 0 30 30" fill="none" xmlns="http://www.w3.org/2000/svg">
<path fill-rule="evenodd" clip-rule="evenodd" d="M6.21561 15.9941C3.69299 17.541 1.55559 19.7634 0 22.4249C0.581583 23.2497 1.2276 24.0188 1.94104 24.7219C5.20342 27.9843 9.70361 30 14.6831 30C19.6608 30 24.1611 27.9843 27.4253 24.7219C28.1372 24.0188 28.7847 23.2497 29.3663 22.4249C27.8105 19.7617 25.6717 17.541 23.1507 15.9941C20.6471 14.4471 17.7597 13.5755 14.6849 13.5755C11.6101 13.5755 8.72285 14.4471 6.21921 15.9941H6.21561ZM10.2557 10.6883C11.3896 11.8221 12.9556 12.5165 14.6813 12.5165C16.4071 12.5165 17.9716 11.8221 19.107 10.6883C20.2408 9.55443 20.944 7.98841 20.944 6.26263C20.944 4.52816 20.2408 2.96215 19.107 1.83701C17.9731 0.703165 16.4071 0 14.6813 0C12.9556 0 11.3911 0.703165 10.2557 1.83701C9.12187 2.96207 8.41871 4.52808 8.41871 6.26263C8.41871 7.98833 9.12187 9.55285 10.2557 10.6883Z" fill="white"/>
</svg>
