<svg width="32" height="26" viewBox="0 0 32 26" fill="none" xmlns="http://www.w3.org/2000/svg">
<path d="M12.0796 5.95243C11.2149 6.74229 10.0507 7.26786 8.84681 7.41759L2.26968 8.13108C0.879384 8.28083 -0.135073 9.40832 0.0146603 10.6489L0.653281 16.5875C0.803029 17.828 2.00689 18.6928 3.39719 18.5415L4.22372 18.4666L4.93721 25.0438C4.97538 25.4578 5.35123 25.7573 5.80194 25.7206L7.53138 25.5327C7.9454 25.4945 8.24487 25.1186 8.20819 24.6679L7.83235 21.0593L8.32124 21.0211C8.50916 20.983 8.6222 20.8332 8.6222 20.6835L8.47245 19.3299C8.43428 19.1419 8.28454 19.0289 8.13479 19.0289L7.6459 19.0671L7.53286 18.0893L10.014 17.8265C11.2545 17.6768 12.4569 17.9395 13.5096 18.54L18.4338 21.4718L16.3285 2.04146L12.0796 5.95243Z" fill="white"/>
<path d="M19.5963 0.803854C19.5215 0.127048 18.6185 -0.135736 18.093 0.353151L17.7171 0.690817L20.0852 22.451L20.5359 22.7138C21.1379 23.0896 21.9644 22.6389 21.8895 21.9621L19.5963 0.803854Z" fill="white"/>
<path d="M24.4055 11.4021L31.3202 10.6504C31.7342 10.6122 32.0336 10.2364 31.997 9.82385C31.9588 9.40982 31.5829 9.11036 31.1704 9.14704L24.2558 9.89871C23.8418 9.93688 23.5423 10.3127 23.579 10.7253C23.6172 11.1011 23.9548 11.4021 24.3307 11.4021H24.4055Z" fill="white"/>
<path d="M24.3691 7.22952L29.9683 2.53157C30.2692 2.26878 30.3059 1.7799 30.0431 1.47893C29.7804 1.17797 29.2915 1.14126 28.9905 1.40406L23.3913 6.10201C23.0903 6.3648 23.0536 6.85368 23.3164 7.15465C23.4662 7.34257 23.6923 7.41744 23.8802 7.41744C24.0681 7.41744 24.2178 7.34257 24.3691 7.22952Z" fill="white"/>
<path d="M31.5464 17.3771L25.0824 13.9564C24.7066 13.7685 24.2559 13.9182 24.0679 14.2574C23.88 14.6332 24.0298 15.0839 24.3689 15.2718L30.8329 18.6925C30.946 18.7674 31.059 18.7674 31.1706 18.7674C31.4334 18.7674 31.6961 18.6176 31.8474 18.3534C32.0735 18.0539 31.9222 17.6032 31.5464 17.3771Z" fill="white"/>
</svg>
