<svg width="18" height="15" viewBox="0 0 18 15" fill="none" xmlns="http://www.w3.org/2000/svg">
<path d="M17.9202 3.50725C17.9202 3.80487 17.816 4.05785 17.6077 4.26618L9.52734 12.3465L8.00949 13.8644C7.80115 14.0727 7.54818 14.1769 7.25056 14.1769C6.95294 14.1769 6.69996 14.0727 6.49163 13.8644L4.97377 12.3465L0.933594 8.30636C0.72526 8.09803 0.621094 7.84505 0.621094 7.54743C0.621094 7.24981 0.72526 6.99684 0.933594 6.7885L2.45145 5.27065C2.65978 5.06231 2.91276 4.95815 3.21038 4.95815C3.508 4.95815 3.76097 5.06231 3.96931 5.27065L7.25056 8.56306L14.572 1.23047C14.7803 1.02214 15.0333 0.917969 15.3309 0.917969C15.6285 0.917969 15.8815 1.02214 16.0898 1.23047L17.6077 2.74833C17.816 2.95666 17.9202 3.20964 17.9202 3.50725Z" fill="white"/>
</svg>
