<svg width="32" height="33" viewBox="0 0 32 33" fill="none" xmlns="http://www.w3.org/2000/svg">
<path d="M13 12.6851H13.01M19 18.6851H19.01M20 11.6851L12 19.6851M26 15.6851C26 21.2079 21.5228 25.6851 16 25.6851C10.4772 25.6851 6 21.2079 6 15.6851C6 10.1622 10.4772 5.68506 16 5.68506C21.5228 5.68506 26 10.1622 26 15.6851ZM13.5 12.6851C13.5 12.9612 13.2761 13.1851 13 13.1851C12.7239 13.1851 12.5 12.9612 12.5 12.6851C12.5 12.4089 12.7239 12.1851 13 12.1851C13.2761 12.1851 13.5 12.4089 13.5 12.6851ZM19.5 18.6851C19.5 18.9612 19.2761 19.1851 19 19.1851C18.7239 19.1851 18.5 18.9612 18.5 18.6851C18.5 18.4089 18.7239 18.1851 19 18.1851C19.2761 18.1851 19.5 18.4089 19.5 18.6851Z" stroke="#898989" stroke-width="2" stroke-linecap="round" stroke-linejoin="round"/>
</svg>
