<svg width="32" height="33" viewBox="0 0 32 33" fill="none" xmlns="http://www.w3.org/2000/svg">
<path d="M21 22.6853L23 24.6853L27 20.6853M27 14.6853H7M27 16.6853V12.8853C27 11.7652 27 11.2051 26.782 10.7773C26.5903 10.401 26.2843 10.095 25.908 9.90329C25.4802 9.6853 24.9201 9.6853 23.8 9.6853H10.2C9.0799 9.6853 8.51984 9.6853 8.09202 9.90329C7.7157 10.095 7.40973 10.401 7.21799 10.7773C7 11.2051 7 11.7652 7 12.8853V20.4853C7 21.6054 7 22.1655 7.21799 22.5933C7.40973 22.9696 7.71569 23.2756 8.09202 23.4673C8.51984 23.6853 9.0799 23.6853 10.2 23.6853H17" stroke="#898989" stroke-width="2" stroke-linecap="round" stroke-linejoin="round"/>
</svg>
