<svg width="36" height="37" viewBox="0 0 36 37" fill="none" xmlns="http://www.w3.org/2000/svg">
<path d="M14.6396 13.0729C13.8984 13.7499 12.9005 14.2004 11.8686 14.3287L6.23108 14.9403C5.0394 15.0687 4.16987 16.0351 4.29821 17.0984L4.8456 22.1886C4.97396 23.252 6.00584 23.9932 7.19752 23.8635L7.90598 23.7994L8.51754 29.4369C8.55026 29.7918 8.87242 30.0485 9.25873 30.017L10.7411 29.8559C11.096 29.8232 11.3527 29.5011 11.3212 29.1148L10.9991 26.0216L11.4181 25.9889C11.5792 25.9562 11.6761 25.8279 11.6761 25.6995L11.5477 24.5393C11.515 24.3782 11.3867 24.2813 11.2583 24.2813L10.8393 24.314L10.7424 23.4759L12.8691 23.2507C13.9324 23.1223 14.963 23.3476 15.8653 23.8622L20.086 26.3752L18.2815 9.72063L14.6396 13.0729Z" fill="#898989"/>
<path d="M21.0825 8.65983C21.0183 8.07971 20.2444 7.85446 19.7939 8.27351L19.4718 8.56294L21.5015 27.2145L21.8879 27.4398C22.4038 27.7619 23.1123 27.3756 23.0481 26.7955L21.0825 8.65983Z" fill="#898989"/>
<path d="M25.2047 17.744L31.1315 17.0997C31.4864 17.067 31.7431 16.7448 31.7116 16.3912C31.6789 16.0364 31.3567 15.7797 31.0032 15.8111L25.0763 16.4554C24.7214 16.4881 24.4648 16.8103 24.4962 17.1639C24.5289 17.486 24.8183 17.744 25.1405 17.744H25.2047Z" fill="#898989"/>
<path d="M25.1734 14.1675L29.9727 10.1407C30.2307 9.91548 30.2622 9.49644 30.0369 9.23846C29.8117 8.9805 29.3926 8.94903 29.1346 9.17428L24.3353 13.2011C24.0774 13.4264 24.0459 13.8454 24.2712 14.1034C24.3995 14.2644 24.5933 14.3286 24.7544 14.3286C24.9154 14.3286 25.0438 14.2644 25.1734 14.1675Z" fill="#898989"/>
<path d="M31.3254 22.8655L25.7848 19.9334C25.4627 19.7724 25.0764 19.9007 24.9153 20.1914C24.7542 20.5135 24.8826 20.8999 25.1733 21.0609L30.7139 23.993C30.8108 24.0571 30.9076 24.0571 31.0033 24.0571C31.2285 24.0571 31.4538 23.9288 31.5834 23.7023C31.7772 23.4456 31.6476 23.0593 31.3254 22.8655Z" fill="#898989"/>
</svg>
