<svg width="30" height="30" viewBox="0 0 30 30" fill="none" xmlns="http://www.w3.org/2000/svg">
<path d="M15 0C6.72787 0 0 6.72787 0 15C0 23.2721 6.72787 30 15 30C23.2721 30 30 23.2721 30 15C30 6.72787 23.2721 0 15 0ZM15 28.875C7.35075 28.875 1.125 22.6493 1.125 15C1.125 7.35075 7.35075 1.125 15 1.125C22.6493 1.125 28.875 7.35075 28.875 15C28.875 22.6493 22.6493 28.875 15 28.875Z" fill="white"/>
<path d="M21.2666 13.8369L12.6123 8.83887C12.1919 8.5957 11.6895 8.5957 11.2705 8.83887C10.8501 9.08203 10.5996 9.51709 10.5996 10.002V19.995C10.5996 20.4828 10.8516 20.9178 11.2705 21.1581C11.48 21.2782 11.7129 21.3412 11.9414 21.3412C12.17 21.3412 12.4029 21.2811 12.6123 21.1581L21.2666 16.1601C21.687 15.9169 21.9375 15.4818 21.9375 14.997C21.9375 14.5136 21.6856 14.0741 21.2666 13.8339L21.2666 13.8369Z" fill="white"/>
</svg>
