<svg width="21" height="21" viewBox="0 0 21 21" fill="none" xmlns="http://www.w3.org/2000/svg">
<path d="M17.3488 14.945C17.3488 15.2427 17.2446 15.4956 17.0363 15.704L15.5184 17.2218C15.3101 17.4302 15.0571 17.5343 14.7595 17.5343C14.4619 17.5343 14.2089 17.4302 14.0006 17.2218L10.7193 13.9406L7.43806 17.2218C7.22972 17.4302 6.97675 17.5343 6.67913 17.5343C6.38151 17.5343 6.12853 17.4302 5.9202 17.2218L4.40234 15.704C4.19401 15.4956 4.08984 15.2427 4.08984 14.945C4.08984 14.6474 4.19401 14.3944 4.40234 14.1861L7.68359 10.9049L4.40234 7.6236C4.19401 7.41527 4.08984 7.1623 4.08984 6.86468C4.08984 6.56706 4.19401 6.31408 4.40234 6.10575L5.9202 4.58789C6.12853 4.37956 6.38151 4.27539 6.67913 4.27539C6.97675 4.27539 7.22972 4.37956 7.43806 4.58789L10.7193 7.86914L14.0006 4.58789C14.2089 4.37956 14.4619 4.27539 14.7595 4.27539C15.0571 4.27539 15.3101 4.37956 15.5184 4.58789L17.0363 6.10575C17.2446 6.31408 17.3488 6.56706 17.3488 6.86468C17.3488 7.1623 17.2446 7.41527 17.0363 7.6236L13.755 10.9049L17.0363 14.1861C17.2446 14.3944 17.3488 14.6474 17.3488 14.945Z" fill="white"/>
</svg>
