<svg width="42" height="43" viewBox="0 0 42 43" fill="none" xmlns="http://www.w3.org/2000/svg">
<path d="M9.625 28.875C15.8499 28.8699 22.0477 29.6942 28.0548 31.3262C28.903 31.5572 29.75 30.9272 29.75 30.0475V28.875M11.375 12.25V13.125C11.375 13.3571 11.2828 13.5796 11.1187 13.7437C10.9546 13.9078 10.7321 14 10.5 14H9.625M9.625 14V13.5625C9.625 12.838 10.213 12.25 10.9375 12.25H30.625M9.625 14V24.5M30.625 12.25V13.125C30.625 13.608 31.017 14 31.5 14H32.375M30.625 12.25H31.0625C31.787 12.25 32.375 12.838 32.375 13.5625V24.9375C32.375 25.662 31.787 26.25 31.0625 26.25H30.625M9.625 24.5V24.9375C9.625 25.2856 9.76328 25.6194 10.0094 25.8656C10.2556 26.1117 10.5894 26.25 10.9375 26.25H11.375M9.625 24.5H10.5C10.7321 24.5 10.9546 24.5922 11.1187 24.7563C11.2828 24.9204 11.375 25.1429 11.375 25.375V26.25M30.625 26.25V25.375C30.625 25.1429 30.7172 24.9204 30.8813 24.7563C31.0454 24.5922 31.2679 24.5 31.5 24.5H32.375M30.625 26.25H11.375M24.5 19.25C24.5 20.1783 24.1313 21.0685 23.4749 21.7249C22.8185 22.3813 21.9283 22.75 21 22.75C20.0717 22.75 19.1815 22.3813 18.5251 21.7249C17.8687 21.0685 17.5 20.1783 17.5 19.25C17.5 18.3217 17.8687 17.4315 18.5251 16.7751C19.1815 16.1187 20.0717 15.75 21 15.75C21.9283 15.75 22.8185 16.1187 23.4749 16.7751C24.1313 17.4315 24.5 18.3217 24.5 19.25ZM28 19.25H28.0093V19.2593H28V19.25ZM14 19.25H14.0093V19.2593H14V19.25Z" stroke="white" stroke-width="1.75" stroke-linecap="round" stroke-linejoin="round"/>
</svg>
