<svg width="43" height="42" viewBox="0 0 43 42" fill="none" xmlns="http://www.w3.org/2000/svg">
<path d="M28.2822 10.7729C29.0818 11.2654 29.8211 11.8498 30.4849 12.5142C31.1649 13.1942 31.7435 13.9329 32.2262 14.7169M28.2822 10.7729L23.6849 16.2902M28.2822 10.7729C26.3916 9.61359 24.2172 9 21.9995 9C19.7819 9 17.6074 9.61359 15.7169 10.7729M32.2262 14.7169L26.7089 19.3142M32.2262 14.7169C33.3855 16.6074 33.9991 18.7819 33.9991 20.9995C33.9991 23.2172 33.3855 25.3916 32.2262 27.2822M23.6849 16.2902C24.3812 16.5391 25.0134 16.9399 25.5355 17.4635C26.0592 17.9857 26.46 18.6179 26.7089 19.3142M23.6849 16.2902C22.5949 15.9017 21.4042 15.9017 20.3142 16.2902M15.7169 10.7729L20.3142 16.2902M15.7169 10.7729C14.9172 11.2654 14.1779 11.8498 13.5142 12.5142C12.8498 13.178 12.2654 13.9172 11.7729 14.7169M26.7089 19.3142C27.0973 20.4042 27.0973 21.5949 26.7089 22.6849M32.2262 27.2822L26.7089 22.6849M32.2262 27.2822C31.7337 28.0818 31.1493 28.8211 30.4849 29.4849C29.8049 30.1649 29.0662 30.7435 28.2822 31.2262M26.7089 22.6849C26.4675 23.3595 26.0755 23.9942 25.5355 24.5355C25.0134 25.0592 24.3812 25.46 23.6849 25.7089M20.3142 16.2902C19.6179 16.5391 18.9857 16.9399 18.4635 17.4635C17.9235 18.0049 17.5315 18.6395 17.2902 19.3142M23.6849 25.7089L28.2822 31.2262M23.6849 25.7089C22.5949 26.0973 21.4042 26.0973 20.3142 25.7089M28.2822 31.2262C26.3916 32.3855 24.2172 32.9991 21.9995 32.9991C19.7819 32.9991 17.6074 32.3855 15.7169 31.2262M15.7169 31.2262L20.3142 25.7089M15.7169 31.2262C14.9172 30.7337 14.1779 30.1493 13.5142 29.4849C12.8498 28.8211 12.2654 28.0818 11.7729 27.2822M20.3142 25.7089C19.6179 25.46 18.9857 25.0592 18.4635 24.5355C17.9399 24.0134 17.5391 23.3812 17.2902 22.6849M17.2902 22.6849L11.7729 27.2822M17.2902 22.6849C16.9017 21.5949 16.9017 20.4042 17.2902 19.3142M11.7729 27.2822C10.6136 25.3916 10 23.2172 10 20.9995C10 18.7819 10.6136 16.6074 11.7729 14.7169M11.7729 14.7169L17.2902 19.3142" stroke="white" stroke-width="2" stroke-linecap="round" stroke-linejoin="round"/>
</svg>
