<svg width="32" height="31" viewBox="0 0 32 31" fill="none" xmlns="http://www.w3.org/2000/svg">
<g opacity="0.6">
<path fill-rule="evenodd" clip-rule="evenodd" d="M29.6033 8.15577C29.5391 6.68398 29.3011 5.67174 28.96 4.79421C28.6117 3.86847 28.0646 3.03041 27.3572 2.33914C26.6654 1.63548 25.829 1.09037 24.9059 0.741456C24.0246 0.401524 23.0174 0.162312 21.5444 0.0981022C20.0625 0.0275976 19.5917 0.0112305 15.8297 0.0112305C12.0691 0.0112305 11.5982 0.0275976 10.1201 0.0918071C8.64834 0.157276 7.6361 0.395229 6.75982 0.73642C5.82816 1.08894 4.99595 1.63032 4.30224 2.33788C3.59894 3.03028 3.05426 3.86705 2.70581 4.79043C2.36588 5.67174 2.12667 6.67895 2.06246 8.15073C1.99195 9.63385 1.97559 10.1047 1.97559 13.8666C1.97559 17.6273 1.99195 18.0969 2.05742 19.575C2.12163 21.048 2.35958 22.059 2.70078 22.9365C3.0533 23.867 3.59971 24.6992 4.30224 25.3929C4.99469 26.0967 5.83445 26.6431 6.75479 26.9893C7.6361 27.3305 8.6433 27.5684 10.1163 27.6339C11.5932 27.6981 12.064 27.7145 15.8247 27.7145C19.5866 27.7145 20.0575 27.6981 21.5343 27.6339C23.0074 27.5684 24.0183 27.3318 24.8959 26.9893C25.8167 26.6332 26.653 26.0887 27.3511 25.3905C28.0492 24.6924 28.5938 23.8561 28.9499 22.9353C29.2898 22.054 29.529 21.0468 29.592 19.575C29.6574 18.0982 29.6738 17.6273 29.6738 13.8654C29.6738 10.1047 29.6688 9.63385 29.6033 8.15577ZM27.1092 19.4667C27.0488 20.8202 26.8222 21.5504 26.632 22.0376C26.4013 22.6353 26.0481 23.1782 25.5952 23.6313C25.1423 24.0845 24.5996 24.4379 24.002 24.6689C23.5147 24.8578 22.7795 25.0844 21.4311 25.1436C19.9706 25.2091 19.5325 25.2254 15.836 25.2254C12.1396 25.2254 11.6951 25.2091 10.2397 25.1436C8.88629 25.0844 8.15607 24.8578 7.66883 24.6677C7.06758 24.4474 6.52366 24.0945 6.07744 23.6353C5.6192 23.1878 5.26651 22.6437 5.04505 22.0427C4.85494 21.5567 4.62706 20.8202 4.56789 19.473C4.50242 18.0113 4.48731 17.5719 4.48731 13.8767C4.48731 10.1803 4.50242 9.73582 4.56789 8.28041C4.62706 6.92823 4.85494 6.19675 5.04379 5.70951C5.26664 5.10896 5.6179 4.56381 6.08374 4.11938C6.53026 3.6608 7.07351 3.30766 7.67387 3.08573C8.1611 2.89688 8.89762 2.669 10.2448 2.60857C11.7052 2.54436 12.1459 2.52799 15.8411 2.52799C19.5426 2.52799 19.9807 2.54436 21.4374 2.60857C22.7895 2.669 23.521 2.89562 24.007 3.08573C24.6088 3.30732 25.1552 3.65858 25.5984 4.11812C26.0592 4.56759 26.4105 5.10896 26.632 5.70951C26.8209 6.19675 27.0488 6.93327 27.1092 8.28041C27.1734 9.74086 27.1898 10.1803 27.1898 13.8767C27.1898 17.5732 27.1734 18.0063 27.1092 19.4667ZM15.8297 6.74945C13.9427 6.75012 12.1331 7.50005 10.7988 8.8344C9.4644 10.1687 8.71448 11.9783 8.71381 13.8654C8.71414 15.7527 9.46392 17.5626 10.7983 18.8972C12.1327 20.2318 13.9425 20.9819 15.8297 20.9826C17.7172 20.9822 19.5273 20.2323 20.862 18.8976C22.1966 17.563 22.9466 15.7529 22.9469 13.8654C22.9463 11.9781 22.1962 10.1683 20.8615 8.83395C19.5269 7.49957 17.717 6.74979 15.8297 6.74945ZM15.8297 18.4822C14.6051 18.482 13.4307 17.9954 12.5649 17.1293C11.6991 16.2633 11.2128 15.0887 11.2129 13.8641C11.2131 12.6395 11.6997 11.4651 12.5658 10.5993C13.4319 9.73348 14.6064 9.24716 15.831 9.24733C17.0556 9.24733 18.2301 9.73381 19.096 10.5997C19.9619 11.4657 20.4484 12.6401 20.4484 13.8647C20.4484 15.0894 19.9619 16.2638 19.096 17.1298C18.2301 17.9957 17.0556 18.4822 15.831 18.4822H15.8297ZM23.2277 8.12933C23.4459 8.12933 23.662 8.08634 23.8637 8.00282C24.0653 7.91931 24.2485 7.79689 24.4028 7.64257C24.5571 7.48825 24.6796 7.30504 24.7631 7.10341C24.8466 6.90178 24.8896 6.68568 24.8896 6.46743C24.8896 6.24919 24.8466 6.03309 24.7631 5.83146C24.6796 5.62983 24.5571 5.44662 24.4028 5.2923C24.2485 5.13798 24.0653 5.01556 23.8637 4.93205C23.662 4.84853 23.4459 4.80554 23.2277 4.80554C22.7869 4.80554 22.3642 4.98063 22.0525 5.2923C21.7409 5.60396 21.5658 6.02667 21.5658 6.46743C21.5658 6.9082 21.7409 7.33091 22.0525 7.64257C22.3642 7.95424 22.7869 8.12933 23.2277 8.12933Z" fill="white"/>
</g>
</svg>
