<svg width="28" height="29" viewBox="0 0 28 29" fill="none" xmlns="http://www.w3.org/2000/svg">
<g clip-path="url(#clip0_7049_752)">
<path d="M22.1968 0.63623H6.11831C2.94739 0.63623 0.375977 3.20765 0.375977 6.37856V22.4571C0.375977 25.628 2.94739 28.1994 6.11831 28.1994H22.1968C25.3689 28.1994 27.9392 25.628 27.9392 22.4571V6.37856C27.9392 3.20765 25.3689 0.63623 22.1968 0.63623ZM9.5637 22.4571H6.11831V9.82396H9.5637V22.4571ZM7.841 8.3677C6.73159 8.3677 5.83119 7.46041 5.83119 6.34181C5.83119 5.2232 6.73159 4.31591 7.841 4.31591C8.95042 4.31591 9.85082 5.2232 9.85082 6.34181C9.85082 7.46041 8.95157 8.3677 7.841 8.3677ZM23.3453 22.4571H19.8999V16.0211C19.8999 12.153 15.306 12.4459 15.306 16.0211V22.4571H11.8606V9.82396H15.306V11.851C16.9093 8.88107 23.3453 8.66171 23.3453 14.6946V22.4571Z" fill="#A1A1A1"/>
</g>
<defs>
<clipPath id="clip0_7049_752">
<rect width="27.5632" height="27.5632" fill="white" transform="translate(0.375977 0.635986)"/>
</clipPath>
</defs>
</svg>
