<svg width="17" height="17" viewBox="0 0 17 17" fill="none" xmlns="http://www.w3.org/2000/svg">
<path d="M7.79546 9.85073H6.68029V7.30177H7.79546M6.85553 8.57625H7.46486M8.91063 7.30177L9.10975 9.85073L9.70718 8.57638L10.3046 9.85073L10.5037 7.30177M12.6064 7.41941L12.4369 7.34923C12.1187 7.21749 11.7507 7.36992 11.6189 7.68807C11.4871 8.00622 11.6396 8.37433 11.9577 8.50611L12.2966 8.64643C12.6147 8.77822 12.7672 9.14633 12.6354 9.46444C12.5037 9.78268 12.1356 9.9351 11.8174 9.80332L11.648 9.73314M4.29064 9.85073V7.30177L5.56512 9.85073V7.30177M6.76326 0.950408L6.76712 2.83485C6.77099 3.645 7.40237 4.30857 8.22012 4.30857H9.17598C9.88611 4.30857 10.5239 4.76412 10.6175 5.64495M14.3334 8.57867C14.9069 8.57791 15.4804 8.5771 16.0548 8.57664M10.2872 16.0886C10.327 15.0632 10.2512 13.892 9.08137 13.892H8.12551C6.83527 13.892 6.6274 12.6779 6.62689 11.5076M2.64006 8.50607L2.2327 8.50603C1.51963 8.50603 0.952228 8.36223 0.523918 8.0555M14.5014 13.0778L13.8483 13.0469C13.0577 13.0096 12.5047 12.8372 12.1419 13.0847C11.7316 13.3647 11.6076 14.0913 12.4502 14.4771L12.9209 14.6941M13.8226 3.03397C16.8836 6.09493 16.8836 11.0576 13.8226 14.1185C10.7617 17.1795 5.79899 17.1795 2.73807 14.1185C-0.322846 11.0576 -0.322846 6.09493 2.73807 3.03397C5.79899 -0.026948 10.7617 -0.026948 13.8226 3.03397ZM12.9952 5.70868H3.97827C3.2773 5.70868 2.70379 6.28219 2.70379 6.98315V10.1694C2.70379 10.8703 3.2773 11.4438 3.97827 11.4438H12.9952C13.6962 11.4438 14.2697 10.8703 14.2697 10.1694V6.98315C14.2697 6.28219 13.6962 5.70868 12.9952 5.70868Z" stroke="white" stroke-width="0.849653" stroke-miterlimit="2.6131" stroke-linecap="round" stroke-linejoin="round"/>
</svg>
