<svg width="21" height="21" viewBox="0 0 21 21" fill="none" xmlns="http://www.w3.org/2000/svg">
<path d="M16.8194 11.869L12.8064 8.88064V2.64776C12.8064 2.22085 12.4649 1.79395 11.9526 1.79395H4.26825C3.84134 1.79395 3.41443 2.13547 3.41443 2.64776V11.1006C3.41443 11.5275 3.75596 11.9544 4.26825 11.9544H7.51276V16.565C7.51276 16.8211 7.68352 16.9919 7.85428 17.0773C8.11043 17.1627 8.36657 17.0773 8.45196 16.9065L10.3304 14.4305L12.2941 18.358C12.4649 18.6142 12.8064 18.7849 13.0626 18.6142L15.1971 17.5896C15.3679 17.5042 15.4533 17.4188 15.4533 17.2481V16.8211L13.4041 12.8082H16.4778C16.734 12.8082 16.9048 12.6374 16.9901 12.3813C17.0755 12.2105 16.9901 11.9544 16.8194 11.869ZM8.36657 5.55075C8.19581 5.46536 7.93967 5.37998 7.7689 5.55075C7.59814 5.55075 7.42737 5.80689 7.42737 5.97765V10.6737H4.69516V3.07467H11.5257V7.85605L10.4157 7.08762L8.36657 5.55075ZM12.5503 11.7836C12.3795 11.7836 12.2088 11.869 12.1234 12.0398C12.038 12.2105 12.038 12.3813 12.1234 12.5521L14.2579 16.8211L13.148 17.4188L11.0134 13.1497C10.928 12.979 10.7573 12.8936 10.5865 12.8082C10.4157 12.8082 10.245 12.8936 10.0742 13.0643L8.7081 14.9427V7.173L9.98883 8.1122L15.0264 11.869L12.5503 11.7836Z" fill="white"/>
</svg>
