<svg width="34" height="33" viewBox="0 0 34 33" fill="none" xmlns="http://www.w3.org/2000/svg">
<path fill-rule="evenodd" clip-rule="evenodd" d="M15.911 0C14.4496 0 13.2427 1.207 13.2427 2.66833V3.65391C12.4659 3.89565 11.7127 4.20728 10.9922 4.58512L10.2965 3.88945C9.26282 2.85578 7.55564 2.85578 6.52197 3.88945L4.63544 5.77598C3.6018 6.80965 3.6018 8.51684 4.63544 9.55047L5.33114 10.2462C4.9533 10.9668 4.64171 11.7198 4.39989 12.4966H3.41431C1.95299 12.4966 0.746094 13.7036 0.746094 15.1649V17.8351C0.746094 19.2964 1.95299 20.5034 3.41431 20.5034H4.39989C4.64164 21.2802 4.9533 22.0333 5.33114 22.7538L4.63544 23.4495C3.6018 24.4832 3.6018 26.1905 4.63544 27.2241L6.52197 29.1105C7.55564 30.1442 9.26282 30.1442 10.2965 29.1105L10.9922 28.4149C11.7127 28.7927 12.4659 29.1043 13.2427 29.3462V30.3317C13.2427 31.793 14.4496 33 15.911 33H18.5811C20.0424 33 21.2493 31.793 21.2493 30.3317V29.3462C22.0262 29.1044 22.7793 28.7927 23.4998 28.4149L24.1955 29.1105C25.2292 30.1442 26.9364 30.1442 27.9701 29.1105L29.8566 27.2241C30.8902 26.1905 30.8902 24.4832 29.8566 23.4495L29.1609 22.7538C29.5387 22.0333 29.8504 21.2802 30.0922 20.5034H31.0778C32.5391 20.5034 33.746 19.2964 33.746 17.8351V15.1649C33.746 13.7036 32.5391 12.4966 31.0778 12.4966H30.0979C29.8555 11.7186 29.543 10.9644 29.1642 10.2429L29.8566 9.55047C30.8902 8.5168 30.8902 6.80965 29.8566 5.77598L27.9701 3.88945C26.9364 2.85578 25.2292 2.85578 24.1955 3.88945L23.5032 4.58186C22.7816 4.20299 22.0274 3.89052 21.2493 3.64808V2.66833C21.2493 1.207 20.0424 0 18.5811 0H15.911ZM15.911 1.94122H18.5811C19.0018 1.94122 19.3082 2.24753 19.3082 2.66833V4.38098C19.3082 4.59737 19.3806 4.80755 19.5137 4.97814C19.6468 5.14872 19.8332 5.26993 20.0431 5.3225C21.1442 5.59799 22.1985 6.03497 23.1719 6.61883C23.3575 6.73014 23.575 6.77623 23.7898 6.74978C24.0046 6.72332 24.2044 6.62584 24.3575 6.47282L25.5682 5.26212C25.8653 4.96498 26.3003 4.96498 26.5974 5.26212L28.484 7.14857C28.7811 7.44571 28.7811 7.88082 28.484 8.17795L27.2733 9.38862C27.1203 9.54167 27.0228 9.74147 26.9964 9.95626C26.9699 10.1711 27.016 10.3885 27.1273 10.5741C27.7111 11.5475 28.148 12.6019 28.4236 13.703C28.4762 13.9129 28.5974 14.0992 28.7679 14.2324C28.9385 14.3656 29.1487 14.4379 29.3651 14.4379H31.0778C31.4985 14.4379 31.8049 14.7442 31.8049 15.165V17.8351C31.8049 18.2558 31.4986 18.5622 31.0778 18.5622H29.3591C29.1427 18.5622 28.9324 18.6346 28.7618 18.7678C28.5912 18.901 28.47 19.0874 28.4175 19.2974C28.1424 20.3974 27.7066 21.4508 27.1239 22.4235C27.0128 22.6091 26.9668 22.8265 26.9934 23.0412C27.0199 23.2559 27.1173 23.4555 27.2703 23.6085L28.484 24.8222C28.7811 25.1194 28.7811 25.5544 28.484 25.8515L26.5974 27.738C26.3003 28.0352 25.8653 28.0352 25.5682 27.738L24.3545 26.5243C24.2015 26.3714 24.0018 26.2739 23.7871 26.2474C23.5724 26.2208 23.355 26.2668 23.1694 26.3779C22.1967 26.9606 21.1433 27.3965 20.0433 27.6715C19.8334 27.7241 19.647 27.8452 19.5138 28.0158C19.3806 28.1865 19.3082 28.3967 19.3082 28.6131V30.3317C19.3082 30.7524 19.0019 31.0588 18.5811 31.0588H15.911C15.4903 31.0588 15.1839 30.7525 15.1839 30.3317V28.6131C15.1838 28.3967 15.1115 28.1865 14.9783 28.0158C14.8451 27.8452 14.6587 27.7241 14.4487 27.6715C13.3488 27.3964 12.2953 26.9606 11.3226 26.3779C11.1371 26.2668 10.9197 26.2208 10.705 26.2474C10.4903 26.2739 10.2906 26.3714 10.1376 26.5243L8.9239 27.738C8.62676 28.0352 8.1917 28.0352 7.89456 27.738L6.0081 25.8515C5.71097 25.5544 5.71097 25.1193 6.0081 24.8222L7.22182 23.6085C7.37477 23.4555 7.47224 23.2559 7.49876 23.0412C7.52528 22.8265 7.47932 22.6091 7.36819 22.4235C6.78554 21.4508 6.3497 20.3974 6.07468 19.2974C6.02217 19.0874 5.90098 18.901 5.73037 18.7678C5.55977 18.6346 5.34954 18.5622 5.13309 18.5622H3.41439C2.9937 18.5622 2.68732 18.2559 2.68732 17.8351V15.165C2.68732 14.7443 2.99363 14.4379 3.41439 14.4379H5.13309C5.34954 14.4379 5.55977 14.3655 5.73037 14.2323C5.90098 14.0991 6.02217 13.9127 6.07468 13.7027C6.34981 12.6027 6.78554 11.5494 7.36819 10.5767C7.47933 10.3911 7.52529 10.1737 7.49878 9.95899C7.47226 9.74429 7.37478 9.54461 7.22182 9.39163L6.0081 8.17795C5.71097 7.88082 5.71097 7.44571 6.0081 7.14857L7.89456 5.26212C8.1917 4.96498 8.62676 4.96498 8.9239 5.26212L10.1376 6.47583C10.2906 6.62879 10.4903 6.72626 10.705 6.75278C10.9197 6.7793 11.1371 6.73334 11.3226 6.6222C12.2953 6.03955 13.3488 5.60372 14.4487 5.32866C14.6587 5.27613 14.8451 5.15494 14.9783 4.98433C15.1115 4.81373 15.1838 4.60351 15.1839 4.38707V2.6684C15.1839 2.24768 15.4902 1.94122 15.911 1.94122ZM17.246 8.1945C12.6705 8.1945 8.94055 11.9245 8.94055 16.5C8.94055 21.0755 12.6705 24.8055 17.246 24.8055C21.8215 24.8055 25.5515 21.0755 25.5515 16.5C25.5515 11.9245 21.8215 8.1945 17.246 8.1945ZM17.246 10.1357C20.7725 10.1357 23.6104 12.9736 23.6104 16.5C23.6104 20.0265 20.7725 22.8643 17.246 22.8643C13.7196 22.8643 10.8817 20.0265 10.8817 16.5C10.8817 12.9736 13.7196 10.1357 17.246 10.1357Z" fill="white"/>
</svg>
