<svg width="15" height="18" viewBox="0 0 15 18" fill="none" xmlns="http://www.w3.org/2000/svg">
<path fill-rule="evenodd" clip-rule="evenodd" d="M10.902 0.900391V0.914683C10.9029 1.17234 10.9783 4.89831 14.8885 5.13081C14.8885 8.5971 14.8903 5.1308 14.8903 8.00972C14.5966 8.02724 12.3165 7.86238 10.8978 6.59684L10.8934 12.2013C10.9284 14.739 9.51573 17.2278 6.87092 17.7292C6.12995 17.8696 5.46266 17.8855 4.34265 17.6407C-2.10945 15.7107 0.0345394 6.1409 6.51301 7.16509C6.51301 10.2546 6.51483 7.16429 6.51483 10.2546C3.83841 9.86083 2.94305 12.0874 3.65443 13.6814C4.30179 15.1327 6.96653 15.4476 7.89611 13.4C8.00139 12.9992 8.05393 12.5423 8.05393 12.0294V0.900391H10.902Z" fill="#A2A2A2"/>
</svg>
