<svg width="27" height="25" viewBox="0 0 27 25" fill="none" xmlns="http://www.w3.org/2000/svg">
<path fill-rule="evenodd" clip-rule="evenodd" d="M14.2436 18.3096V23.0117H12.8606V18.3096H14.2436Z" fill="white"/>
<path fill-rule="evenodd" clip-rule="evenodd" d="M6.91279 23.4268L6.65597 22.7847L6.01392 23.0416L6.52756 24.3257L7.16892 24.0691L7.17272 24.0676L7.19166 24.0603C7.20944 24.0535 7.23751 24.0429 7.27554 24.0291C7.35147 24.0015 7.46702 23.9609 7.6188 23.9117C7.9225 23.8132 8.37086 23.6802 8.93816 23.5467C10.074 23.2794 11.6794 23.0119 13.5511 23.0119C15.4228 23.0119 17.0282 23.2794 18.164 23.5467C18.7313 23.6802 19.1797 23.8132 19.4834 23.9117C19.6352 23.9609 19.7507 24.0015 19.8267 24.0291C19.8647 24.0429 19.8928 24.0535 19.9105 24.0603L19.9295 24.0676L19.9326 24.0688L20.5746 24.3257L21.0883 23.0416L20.4462 22.7847L20.2139 23.3657C20.4462 22.7847 20.4462 22.7847 20.4462 22.7847L20.4445 22.784L20.4417 22.783L20.4332 22.7796L20.4043 22.7684C20.3796 22.759 20.3445 22.7458 20.2993 22.7294C20.2089 22.6965 20.0781 22.6507 19.9101 22.5962C19.5741 22.4872 19.089 22.3436 18.4807 22.2005C17.2655 21.9146 15.5518 21.6289 13.5511 21.6289C11.5504 21.6289 9.83669 21.9146 8.62146 22.2005C8.01322 22.3436 7.52808 22.4872 7.19215 22.5962C7.02412 22.6507 6.89329 22.6965 6.80291 22.7294C6.75769 22.7458 6.72256 22.759 6.69794 22.7684L6.66897 22.7796L6.66046 22.783L6.65769 22.784L6.65673 22.7845C6.65673 22.7845 6.65597 22.7847 6.91279 23.4268Z" fill="white"/>
<path fill-rule="evenodd" clip-rule="evenodd" d="M0.689697 0.607422H26.4132V19.6926H0.689697V0.607422ZM2.07268 1.9904V18.3096H25.0302V1.9904H2.07268Z" fill="white"/>
<path fill-rule="evenodd" clip-rule="evenodd" d="M6.39648 10.1501C6.39648 14.1017 9.59995 17.3051 13.5515 17.3051C14.9054 17.3051 16.1733 16.9285 17.2538 16.274C17.5572 16.0902 17.6542 15.6953 17.4704 15.3919C17.2866 15.0885 16.8917 14.9915 16.5883 15.1753C15.7028 15.7117 14.6642 16.0207 13.5515 16.0207C10.3094 16.0207 7.681 13.3923 7.681 10.1501C7.681 6.90792 10.3094 4.27956 13.5515 4.27956C16.7937 4.27956 19.422 6.90792 19.422 10.1501C19.422 11.3537 19.0513 12.4737 18.4266 13.4083C18.2294 13.7032 18.3086 14.1021 18.6035 14.2992C18.8984 14.4963 19.2972 14.4171 19.4944 14.1222C20.2525 12.9882 20.7065 11.6217 20.7065 10.1501C20.7065 6.19845 17.5031 2.99512 13.5515 2.99512C9.59995 2.99512 6.39648 6.19845 6.39648 10.1501Z" fill="white"/>
<path fill-rule="evenodd" clip-rule="evenodd" d="M12.4004 11.6906L15.0613 10.149L12.4004 8.60741V11.6906ZM11.116 11.743C11.116 12.7068 12.1591 13.3149 12.9972 12.8293L15.7486 11.2353C16.5829 10.7519 16.5829 9.54604 15.7486 9.06269L12.9972 7.46866C12.1591 6.98317 11.116 7.59113 11.116 8.555V11.743Z" fill="white"/>
</svg>
