<svg width="88" height="18" viewBox="0 0 88 18" fill="none" xmlns="http://www.w3.org/2000/svg">
<path d="M23.3906 0.99707H29.0064C29.6852 4.76053 30.364 8.53898 31.0456 12.3144C31.6047 8.49703 34.0689 5.81742 35.8571 2.78449C36.4704 1.74557 37.4971 1.14378 38.6607 1.05994C39.9613 0.964136 41.2733 1.03899 42.705 1.03899C42.3913 1.55994 42.1175 2.033 41.8266 2.49108C39.1142 6.74257 36.4019 10.9941 33.6867 15.2396C32.5259 17.0569 29.5312 17.8293 27.7058 16.7365C27.3579 16.527 26.9871 16.1138 26.8901 15.7246C25.7008 10.8473 24.5599 5.95814 23.3906 0.99707Z" fill="white"/>
<path d="M16.0999 10.9998C16.2311 9.61356 16.3737 8.32017 16.4678 7.02378C16.5362 6.11659 16.0999 5.59564 15.2243 5.58066C12.1126 5.51779 8.99815 5.46989 5.88365 5.43097C4.50609 5.413 3.12567 5.43097 1.75096 5.43097C1.61406 2.6645 3.13423 0.862115 5.68971 0.841157C9.75399 0.80523 13.8182 0.811217 17.8824 0.841157C20.1299 0.859122 21.4105 2.27828 21.3136 4.61959C21.265 5.78725 21.1624 6.96091 20.9713 8.11359C20.6575 10.0088 20.0643 10.5896 18.2589 10.8651C17.5316 10.9759 16.7872 10.9639 16.0942 11.0058L16.0999 10.9998Z" fill="white"/>
<path d="M6.07886 6.74323C5.9334 7.96777 5.74516 9.04562 5.68812 10.1324C5.594 11.8989 5.87636 12.2372 7.53343 12.2582C10.9502 12.3031 14.3699 12.2881 17.7868 12.2941C18.6595 12.2941 19.5322 12.2941 20.405 12.2941C20.4363 15.345 18.9618 16.9378 16.1582 16.9378C12.2308 16.9408 8.3035 16.9438 4.3733 16.9378C2.00036 16.9348 0.722616 15.5726 0.833848 13.0785C0.89089 11.8061 1.01638 10.5247 1.23599 9.27315C1.49268 7.81209 2.24849 7.13245 3.64317 6.94383C4.43605 6.83604 5.24034 6.80611 6.07315 6.74023L6.07886 6.74323Z" fill="white"/>
<path d="M73.0844 1.05507C72.8306 2.35147 72.5767 3.63291 72.2973 5.05506C71.6641 5.05506 71.0281 5.04608 70.3949 5.05506C67.9478 5.09398 66.6757 6.04608 66.0682 8.54008C65.4493 11.082 64.9901 13.6688 64.4169 16.2257C64.3541 16.5011 64.0033 16.9023 63.778 16.9113C62.1238 16.9712 60.4695 16.9443 58.6956 16.9443C59.1576 14.6299 59.594 12.4173 60.0417 10.2078C60.2671 9.09697 60.4867 7.98619 60.7519 6.8844C61.6703 3.07303 63.2332 1.50717 66.9524 1.09699C68.9517 0.875431 70.9938 1.05807 73.0844 1.05807V1.05507Z" fill="white"/>
<path d="M72.5825 10.8288H70.0356C69.9072 8.99353 70.0213 8.85878 71.6213 8.85878C74.5961 8.85878 77.5709 8.85878 80.6599 8.85878C80.9137 10.7241 81.1616 12.5534 81.4101 14.3827C81.487 14.3977 81.5639 14.4157 81.6438 14.4306C82.2656 13.2719 82.9726 12.1522 83.4921 10.9426C84.2364 9.22106 85.4144 8.55936 87.2649 8.95456C87.0283 9.38275 86.8088 9.80191 86.5692 10.2061C85.4995 12.0175 84.4872 13.8677 83.3204 15.6073C82.9158 16.2091 82.1887 16.763 81.5154 16.9396C80.212 17.2809 79.6559 16.7899 79.3819 15.4007C78.9997 13.4606 78.6488 11.5145 78.2241 9.266C78.0158 9.95756 77.8956 10.3558 77.7448 10.8557H73.4895C74.8813 11.754 74.887 11.754 74.5533 13.3947C74.3138 14.5683 74.057 15.736 73.8032 16.9156H71.3818C71.7754 14.9216 72.1604 12.9695 72.5825 10.8319V10.8288Z" fill="white"/>
<path d="M45.3118 10.8047C47.2227 12.0861 49.1849 12.7957 51.2327 12.9244C53.5914 12.9244 55.6164 12.8735 57.8068 12.8735C57.938 15.3256 56.6004 16.9244 54.3957 16.9454C51.6891 16.9723 48.9824 16.9962 46.2758 16.9184C42.8732 16.8196 41.3673 15.0442 41.5385 11.4813C41.5612 10.9843 41.5641 10.4753 41.681 9.99928C42.1288 8.149 42.5167 6.27473 43.1185 4.47833C43.7745 2.52025 45.2205 1.22085 47.1856 1.08911C50.0063 0.900492 52.8642 0.813666 55.6735 1.08013C58.2204 1.32265 59.2358 2.85857 59.1074 5.54719C59.0589 6.59509 58.845 7.65796 58.5541 8.66692C58.1348 10.119 57.1451 10.8286 55.6535 10.8106C52.5761 10.7777 49.4958 10.8017 46.4184 10.8017C46.099 10.8017 45.7824 10.8017 45.3146 10.8017L45.3118 10.8047ZM48.1896 7.10407C49.6355 7.10407 51.0531 7.16096 52.4591 7.06215C52.7957 7.0382 53.2378 6.5412 53.3689 6.16096C53.4545 5.91545 53.1436 5.2927 52.8756 5.17593C51.6491 4.63701 50.3629 4.62204 49.145 5.20887C48.4605 5.5412 48.141 6.20587 48.1896 7.10706V7.10407Z" fill="white"/>
</svg>
