<svg width="31" height="23" viewBox="0 0 31 23" fill="none" xmlns="http://www.w3.org/2000/svg">
<path fill-rule="evenodd" clip-rule="evenodd" d="M27.2625 1.53263C27.9001 1.70556 28.4814 2.04233 28.9485 2.50946C29.4156 2.9766 29.7524 3.55784 29.9253 4.19544C30.5725 6.55986 30.5473 11.4889 30.5473 11.4889C30.5473 11.4889 30.5473 16.3915 29.9253 18.7559C29.7526 19.3937 29.4159 19.9752 28.9488 20.4426C28.4816 20.91 27.9003 21.2469 27.2625 21.42C24.8981 22.0419 15.4404 22.0419 15.4404 22.0419C15.4404 22.0419 6.00667 22.0419 3.61707 21.3948C2.97948 21.2218 2.39824 20.8851 1.9311 20.4179C1.46396 19.9508 1.1272 19.3696 0.954265 18.732C0.331055 16.3915 0.331055 11.4637 0.331055 11.4637C0.331055 11.4637 0.331055 6.55986 0.954265 4.19544C1.13039 3.55667 1.46782 2.97394 1.93414 2.50321C2.40046 2.03248 2.98 1.68958 3.61707 1.50745C5.98149 0.885498 15.4392 0.885498 15.4392 0.885498C15.4392 0.885498 24.8994 0.885498 27.2625 1.53263ZM12.4276 15.9936V6.93378L20.2927 11.4637L12.4276 15.9936Z" fill="white"/>
</svg>
