<svg width="21" height="15" viewBox="0 0 22 16" fill="#FFFFFF" xmlns="http://www.w3.org/2000/svg">
<path fill-rule="evenodd" clip-rule="evenodd" d="M19.2648 0.92058C19.7071 1.04054 20.1103 1.27415 20.4343 1.59819C20.7584 1.92223 20.992 2.32543 21.1119 2.76771C21.5608 4.40786 21.5434 7.82702 21.5434 7.82702C21.5434 7.82702 21.5434 11.2278 21.1119 12.868C20.9921 13.3104 20.7586 13.7138 20.4345 14.038C20.1104 14.3622 19.7072 14.5959 19.2648 14.716C17.6246 15.1474 11.0641 15.1474 11.0641 15.1474C11.0641 15.1474 4.52006 15.1474 2.86245 14.6985C2.42016 14.5786 2.01697 14.3449 1.69292 14.0209C1.36888 13.6969 1.13528 13.2937 1.01531 12.8514C0.583008 11.2278 0.583008 7.80955 0.583008 7.80955C0.583008 7.80955 0.583008 4.40786 1.01531 2.76771C1.13749 2.32462 1.37156 1.92038 1.69503 1.59385C2.01851 1.26732 2.42052 1.02945 2.86245 0.903114C4.50259 0.47168 11.0632 0.47168 11.0632 0.47168C11.0632 0.47168 17.6255 0.47168 19.2648 0.92058ZM8.97414 10.9519V4.66724L14.4299 7.80955L8.97414 10.9519Z" fill="white"/>
</svg>
