<svg width="16" height="16" viewBox="0 0 16 16" fill="none" xmlns="http://www.w3.org/2000/svg">
<path d="M8.36444 5.02085L8.92995 5.09961C8.96794 4.7863 8.74548 4.49705 8.43319 4.45355L8.36444 5.02085ZM8.56109 3.39787L8.49234 3.96517C8.80471 4.00866 9.08868 3.78994 9.12667 3.47663L8.56109 3.39787ZM3.69637 4.37075L3.76512 3.80345C3.45278 3.75995 3.1688 3.97868 3.13083 4.29199L3.69637 4.37075ZM3.89305 2.74777L3.32751 2.66901C3.28954 2.98231 3.51196 3.27157 3.8243 3.31507L3.89305 2.74777ZM11.0562 3.4703L10.794 5.63427L11.9251 5.79179L12.1873 3.62782L11.0562 3.4703ZM9.71768 6.55784C9.47429 6.52397 9.32202 6.50241 9.2076 6.47789C9.09903 6.45462 9.06813 6.43699 9.05975 6.43187L8.4762 7.40557C8.64339 7.50866 8.8178 7.56154 8.98826 7.59803C9.15286 7.63331 9.35332 7.66089 9.58019 7.69244L9.71768 6.55784ZM7.79886 4.94209C7.76878 5.19066 7.73589 5.4608 7.71785 5.69575C7.70209 5.90126 7.68747 6.17779 7.74054 6.38868L8.84491 6.12551C8.84894 6.14158 8.84323 6.12501 8.84278 6.05266C8.84239 5.98844 8.84605 5.90508 8.85389 5.80315C8.86965 5.59839 8.89896 5.35518 8.92995 5.09961L7.79886 4.94209ZM9.05975 6.43187C8.96215 6.37167 8.88 6.26517 8.84491 6.12551L7.74054 6.38868C7.84606 6.80775 8.1059 7.17729 8.4762 7.40557L9.05975 6.43187ZM10.794 5.63427C10.7626 5.89361 10.742 6.06149 10.7182 6.18897C10.6952 6.31206 10.6759 6.35774 10.6645 6.37892L11.6695 6.93583C11.759 6.76889 11.8054 6.59448 11.8383 6.41845C11.8702 6.24683 11.8954 6.03659 11.9251 5.79179L10.794 5.63427ZM9.58019 7.69244C9.80706 7.72406 10.0074 7.75233 10.175 7.7633C10.3484 7.77465 10.5296 7.77138 10.7158 7.71751L10.3838 6.61628C10.3745 6.61894 10.3404 6.62748 10.2298 6.62024C10.1134 6.61262 9.96108 6.59174 9.71768 6.55784L9.58019 7.69244ZM10.6645 6.37892C10.5972 6.50432 10.4925 6.58481 10.3838 6.61628L10.7158 7.71751C11.1283 7.59819 11.4676 7.31216 11.6695 6.93583L10.6645 6.37892ZM10.2358 2.28253C10.4792 2.31643 10.6314 2.338 10.7458 2.36251C10.8544 2.38578 10.8854 2.40342 10.8937 2.40854L11.4772 1.43481C11.3101 1.33173 11.1356 1.2789 10.9653 1.24237C10.8006 1.2071 10.6001 1.17954 10.3733 1.14794L10.2358 2.28253ZM12.1873 3.62782C12.217 3.38302 12.2427 3.17286 12.2527 2.99816C12.2629 2.81902 12.2596 2.63766 12.2129 2.45173L11.1085 2.71489C11.1145 2.73849 11.1223 2.78795 11.1152 2.91325C11.1078 3.04301 11.0877 3.21097 11.0562 3.4703L12.1873 3.62782ZM10.8937 2.40854C10.9913 2.46873 11.0734 2.57523 11.1085 2.71489L12.2129 2.45173C12.1074 2.03262 11.8475 1.66312 11.4772 1.43481L10.8937 2.40854ZM10.3733 1.14794C10.1464 1.11635 9.946 1.08808 9.77844 1.0771C9.60501 1.06573 9.42381 1.06905 9.23759 1.1229L9.56968 2.22415C9.57897 2.22148 9.61308 2.2129 9.72362 2.22015C9.84003 2.22778 9.99237 2.24864 10.2358 2.28253L10.3733 1.14794ZM9.12667 3.47663C9.15758 3.22106 9.1872 2.97788 9.22077 2.77562C9.23752 2.67493 9.25381 2.59332 9.26949 2.53134C9.28716 2.46151 9.29667 2.44705 9.28891 2.46148L8.28397 1.90457C8.18241 2.09392 8.13064 2.36527 8.09691 2.56828C8.05831 2.80036 8.02565 3.07054 7.99558 3.31911L9.12667 3.47663ZM9.23759 1.1229C8.82511 1.2422 8.48587 1.52826 8.28397 1.90457L9.28891 2.46148C9.35621 2.33608 9.46097 2.25561 9.56968 2.22415L9.23759 1.1229ZM1.20121 4.29832L1.46345 2.13435L0.33237 1.97683L0.0701263 4.1408L1.20121 4.29832ZM2.0217 5.48608C1.77829 5.45219 1.62604 5.43062 1.51164 5.4061C1.40306 5.38283 1.37212 5.3652 1.36381 5.36008L0.780246 6.33381C0.947439 6.43689 1.12183 6.48972 1.29226 6.52625C1.45687 6.56149 1.65732 6.58908 1.8842 6.6207L2.0217 5.48608ZM0.0701263 4.1408C0.0404578 4.3856 0.0147176 4.59576 0.00475952 4.77046C-0.00546498 4.9496 -0.002199 5.13095 0.0445992 5.31689L1.14892 5.05373C1.14298 5.03013 1.13515 4.98067 1.1423 4.85537C1.1497 4.72561 1.16977 4.55765 1.20121 4.29832L0.0701263 4.1408ZM1.36381 5.36008C1.26617 5.29989 1.18406 5.19339 1.14892 5.05373L0.0445992 5.31689C0.150072 5.736 0.409887 6.10549 0.780246 6.33381L1.36381 5.36008ZM3.13083 4.29199C3.09986 4.54756 3.07028 4.79074 3.03667 4.993C3.01994 5.09369 3.00364 5.1753 2.98796 5.23728C2.97028 5.30711 2.96081 5.32157 2.96855 5.30714L3.9735 5.86405C4.07507 5.6747 4.12686 5.40335 4.1606 5.20034C4.19916 4.96826 4.23179 4.69808 4.26191 4.44951L3.13083 4.29199ZM1.8842 6.6207C2.11108 6.65224 2.31145 6.68051 2.47901 6.69148C2.65248 6.70291 2.83367 6.69956 3.01988 6.64569L2.68777 5.54446C2.67852 5.54714 2.64441 5.55572 2.53388 5.54847C2.41744 5.54084 2.2651 5.51998 2.0217 5.48608L1.8842 6.6207ZM2.96855 5.30714C2.90129 5.43254 2.79652 5.51301 2.68777 5.54446L3.01988 6.64569C3.43237 6.52642 3.77163 6.24036 3.9735 5.86405L2.96855 5.30714ZM2.53981 1.21075C2.78321 1.24464 2.93545 1.26621 3.04986 1.29073C3.15844 1.314 3.18938 1.33163 3.19768 1.33675L3.78125 0.36302C3.61406 0.259944 3.43968 0.207112 3.26925 0.170592C3.10463 0.135306 2.90417 0.107747 2.6773 0.0761572L2.53981 1.21075ZM4.45859 2.82653C4.48871 2.57796 4.52156 2.30782 4.5396 2.07286C4.55537 1.86736 4.56997 1.59083 4.5169 1.37994L3.41258 1.6431C3.40854 1.62704 3.41425 1.64361 3.41468 1.71596C3.41508 1.78018 3.41139 1.86354 3.40356 1.96547C3.38785 2.17022 3.35848 2.41344 3.32751 2.66901L4.45859 2.82653ZM3.19768 1.33675C3.29533 1.39694 3.37743 1.50344 3.41258 1.6431L4.5169 1.37994C4.41143 0.960829 4.15161 0.591335 3.78125 0.36302L3.19768 1.33675ZM2.6773 0.0761572C2.45043 0.0445596 2.25005 0.0162993 2.0825 0.00531215C1.90901 -0.00605598 1.72783 -0.00274156 1.54162 0.0511123L1.87373 1.15237C1.88298 1.14969 1.91709 1.14111 2.02761 1.14836C2.14406 1.15599 2.2964 1.17685 2.53981 1.21075L2.6773 0.0761572ZM1.46345 2.13435C1.49487 1.87501 1.51549 1.70713 1.53927 1.57965C1.56222 1.45655 1.58158 1.41088 1.59295 1.38969L0.588006 0.832778C0.498444 0.999726 0.452064 1.17416 0.419244 1.35017C0.387238 1.52179 0.362031 1.73202 0.33237 1.97683L1.46345 2.13435ZM1.54162 0.0511123C1.12914 0.170409 0.789869 0.456471 0.588006 0.832778L1.59295 1.38969C1.66021 1.26429 1.76497 1.18382 1.87373 1.15237L1.54162 0.0511123ZM3.8243 3.31507L8.49234 3.96517L8.62983 2.83057L3.9618 2.18047L3.8243 3.31507ZM8.43319 4.45355L3.76512 3.80345L3.62762 4.93804L8.29569 5.58815L8.43319 4.45355Z" fill="white"/>
<path d="M7.70835 12.9809L7.15951 13.1385C7.083 12.8324 7.26663 12.5136 7.56979 12.4265L7.70835 12.9809ZM4.27603 14.2492C4.1995 13.9431 4.38319 13.6243 4.6863 13.5372C4.98941 13.4501 5.29717 13.6277 5.37369 13.9339L4.27603 14.2492ZM4.70198 11.0867C4.66307 11.4036 4.38007 11.636 4.06988 11.6057C3.75968 11.5756 3.53977 11.2942 3.57868 10.9773L4.70198 11.0867ZM7.31322 11.4L7.45178 11.9544C7.14862 12.0415 6.8409 11.8639 6.76439 11.5577L7.31322 11.4ZM12.2552 11.6749L12.1167 11.1205C12.4198 11.0334 12.7275 11.2111 12.8041 11.5172L12.2552 11.6749ZM11.8601 10.094L12.4089 9.93633C12.4855 10.2425 12.3018 10.5613 11.9987 10.6484L11.8601 10.094ZM6.55609 14.6944C6.79309 14.6264 6.94162 14.5833 7.05224 14.5427C7.15738 14.5042 7.18646 14.482 7.19468 14.4753L7.89007 15.3634C7.73766 15.4888 7.57199 15.5656 7.40793 15.6258C7.24935 15.684 7.0543 15.7397 6.83321 15.8032L6.55609 14.6944ZM8.25718 12.8232C8.3177 13.0653 8.38356 13.3286 8.43046 13.5591C8.47141 13.7604 8.52021 14.0334 8.49349 14.2508L7.37024 14.1415C7.36811 14.1585 7.37177 14.1418 7.36332 14.0702C7.35585 14.0067 7.34192 13.9247 7.3216 13.8249C7.28079 13.6243 7.22171 13.3875 7.15951 13.1385L8.25718 12.8232ZM7.19468 14.4753C7.28498 14.401 7.35273 14.2836 7.37024 14.1415L8.49349 14.2508C8.4405 14.6825 8.2281 15.0854 7.89007 15.3634L7.19468 14.4753ZM5.37369 13.9339C5.43685 14.1866 5.47795 14.3499 5.51716 14.4726C5.55501 14.5911 5.57962 14.6331 5.59311 14.6519L4.67133 15.3488C4.56157 15.1954 4.49388 15.0285 4.43954 14.8584C4.38658 14.6926 4.33562 14.4875 4.27603 14.2492L5.37369 13.9339ZM6.83321 15.8032C6.61212 15.8667 6.41728 15.923 6.25281 15.9576C6.08263 15.9934 5.90331 16.0157 5.71282 15.9888L5.90085 14.8469C5.91109 14.8483 5.94664 14.8519 6.05568 14.829C6.17043 14.8049 6.3191 14.7625 6.55609 14.6944L6.83321 15.8032ZM5.59311 14.6519C5.67454 14.7657 5.78803 14.831 5.90085 14.8469L5.71282 15.9888C5.2904 15.9292 4.91855 15.6942 4.67133 15.3488L5.59311 14.6519ZM5.51611 10.5337C5.27912 10.6017 5.13061 10.6448 5.01999 10.6854C4.91486 10.724 4.88573 10.7461 4.87754 10.7528L4.18211 9.86471C4.33453 9.73937 4.50023 9.66257 4.6643 9.6023C4.82286 9.54409 5.01791 9.48847 5.23899 9.42492L5.51611 10.5337ZM4.87754 10.7528C4.78726 10.8271 4.71945 10.9445 4.70198 11.0867L3.57868 10.9773C3.63169 10.5457 3.84408 10.1428 4.18211 9.86471L4.87754 10.7528ZM5.23899 9.42492C5.46005 9.36145 5.65493 9.30507 5.8194 9.27055C5.98959 9.23474 6.16891 9.21242 6.3594 9.23931L6.17136 10.3812C6.16113 10.3798 6.12557 10.3762 6.01654 10.3991C5.90179 10.4233 5.75311 10.4656 5.51611 10.5337L5.23899 9.42492ZM6.76439 11.5577C6.70211 11.3087 6.64288 11.072 6.58464 10.8764C6.55563 10.7791 6.52952 10.7007 6.50638 10.6417C6.48031 10.5751 6.46932 10.5626 6.47911 10.5762L7.40085 9.87942C7.52548 10.0534 7.61052 10.3159 7.66891 10.5123C7.73583 10.737 7.80153 11.0003 7.86205 11.2424L6.76439 11.5577ZM6.3594 9.23931C6.78182 9.29897 7.15365 9.53403 7.40085 9.87942L6.47911 10.5762C6.39767 10.4625 6.28418 10.3972 6.17136 10.3812L6.3594 9.23931ZM14.7215 11.2488L14.1947 9.14102L15.2924 8.82573L15.8192 10.9335L14.7215 11.2488ZM14.0523 12.5412C14.2893 12.4731 14.4378 12.4301 14.5484 12.3895C14.6535 12.3509 14.6827 12.3287 14.6909 12.322L15.3863 13.2102C15.2339 13.3356 15.0682 13.4124 14.9041 13.4726C14.7456 13.5308 14.5505 13.5865 14.3295 13.6499L14.0523 12.5412ZM15.8192 10.9335C15.8788 11.1719 15.9303 11.3768 15.9618 11.5487C15.9941 11.7251 16.0133 11.9059 15.9897 12.0976L14.8664 11.9882C14.8693 11.9646 14.8711 11.9151 14.8486 11.7923C14.8253 11.6649 14.7847 11.5014 14.7215 11.2488L15.8192 10.9335ZM14.6909 12.322C14.7811 12.2478 14.849 12.1304 14.8664 11.9882L15.9897 12.0976C15.9367 12.5292 15.7243 12.9321 15.3863 13.2102L14.6909 12.322ZM12.8041 11.5172C12.8663 11.7661 12.9256 12.0029 12.9837 12.1985C13.0128 12.2958 13.0389 12.3742 13.062 12.4332C13.0881 12.4998 13.0991 12.5123 13.0893 12.4987L12.1675 13.1955C12.043 13.0215 11.9579 12.759 11.8995 12.5626C11.8326 12.3379 11.7669 12.0746 11.7064 11.8325L12.8041 11.5172ZM14.3295 13.6499C14.1084 13.7134 13.9135 13.7698 13.749 13.8044C13.5789 13.8401 13.3995 13.8625 13.209 13.8356L13.3971 12.6937C13.4073 12.6951 13.4428 12.6987 13.5519 12.6757C13.6667 12.6517 13.8153 12.6093 14.0523 12.5412L14.3295 13.6499ZM13.0893 12.4987C13.1707 12.6124 13.2842 12.6778 13.3971 12.6937L13.209 13.8356C12.7866 13.776 12.4147 13.5409 12.1675 13.1955L13.0893 12.4987ZM13.0123 8.38046C12.7753 8.4485 12.6268 8.49155 12.5162 8.53216C12.4111 8.57079 12.3819 8.59288 12.3738 8.59959L11.6783 7.71155C11.8307 7.58613 11.9965 7.50933 12.1605 7.44906C12.319 7.39085 12.5141 7.33523 12.7352 7.27168L13.0123 8.38046ZM11.3113 10.2516C11.2508 10.0096 11.1848 9.74631 11.1379 9.51582C11.097 9.31444 11.0482 9.04159 11.0749 8.82406L12.1982 8.93347C12.2003 8.9164 12.1966 8.93317 12.2051 9.00471C12.2126 9.06826 12.2265 9.15017 12.2468 9.24998C12.2876 9.4506 12.3467 9.68741 12.4089 9.93633L11.3113 10.2516ZM12.3738 8.59959C12.2835 8.67388 12.2157 8.79129 12.1982 8.93347L11.0749 8.82406C11.1279 8.39242 11.3403 7.98958 11.6783 7.71155L12.3738 8.59959ZM12.7352 7.27168C12.9563 7.20821 13.1512 7.1519 13.3156 7.11731C13.4858 7.0815 13.6651 7.05925 13.8556 7.08607L13.6676 8.22799C13.6574 8.22654 13.6218 8.22296 13.5127 8.2459C13.398 8.27005 13.2493 8.31241 13.0123 8.38046L12.7352 7.27168ZM14.1947 9.14102C14.1316 8.88829 14.0905 8.72508 14.0513 8.60226C14.0134 8.48377 13.9888 8.44187 13.9753 8.42297L14.8971 7.72618C15.0069 7.87948 15.0746 8.04642 15.1288 8.21649C15.1818 8.38228 15.2328 8.58732 15.2924 8.82573L14.1947 9.14102ZM13.8556 7.08607C14.278 7.14573 14.6499 7.38079 14.8971 7.72618L13.9753 8.42297C13.8939 8.30921 13.7804 8.24392 13.6676 8.22799L13.8556 7.08607ZM11.9987 10.6484L7.45178 11.9544L7.17466 10.8457L11.7215 9.53959L11.9987 10.6484ZM7.56979 12.4265L12.1167 11.1205L12.3938 12.2292L7.8469 13.5353L7.56979 12.4265Z" fill="white"/>
</svg>
